<svg data-v-423bf9ae="" xmlns="http://www.w3.org/2000/svg" viewBox="0 0 374 111" class="iconLeft"><!----><!----><!----><g data-v-423bf9ae="" id="532fa992-1c81-4e41-a227-38aa7347a717" fill="black" transform="matrix(4.735595867300924,0,0,4.735595867300924,122.60053789833061,15.02736359365921)"><path d="M0.29 12.29L0.29 11.52L5.78 4.02L0.66 4.02L0.66 2.69L8.11 2.69L8.11 3.46L2.62 10.96L8.23 10.96L8.23 12.29L0.29 12.29ZM9.51 3.65L9.51 2.17L10.95 2.17L10.95 3.65L9.51 3.65ZM9.51 12.29L9.51 4.93L10.95 4.93L10.95 12.29L9.51 12.29ZM14.13 14.84L14.13 14.84Q13.34 14.84 12.76 14.41L12.76 14.41L12.76 14.41Q12.18 13.97 12.18 13.09L12.18 13.09L12.18 13.09Q12.18 12.00 13.36 11.54L13.36 11.54L13.36 11.54Q13.02 11.35 12.81 11.07L12.81 11.07L12.81 11.07Q12.60 10.78 12.60 10.42L12.60 10.42L12.60 10.42Q12.60 9.90 12.98 9.60L12.98 9.60L12.98 9.60Q13.36 9.30 13.85 9.17L13.85 9.17L13.85 9.17Q13.37 8.83 13.10 8.34L13.10 8.34L13.10 8.34Q12.84 7.85 12.84 7.25L12.84 7.25L12.84 7.25Q12.84 6.08 13.65 5.42L13.65 5.42L13.65 5.42Q14.46 4.76 15.90 4.76L15.90 4.76L15.90 4.76Q16.67 4.76 17.32 5.00L17.32 5.00L17.32 5.00Q18.20 4.54 18.31 3.72L18.31 3.72L19.70 3.72L19.70 3.72Q19.70 4.42 19.31 4.90L19.31 4.90L19.31 4.90Q18.91 5.38 18.23 5.53L18.23 5.53L18.23 5.53Q18.98 6.20 18.98 7.25L18.98 7.25L18.98 7.25Q18.98 8.41 18.17 9.07L18.17 9.07L18.17 9.07Q17.36 9.73 15.93 9.73L15.93 9.73L14.77 9.73L14.77 9.73Q14.43 9.73 14.25 9.88L14.25 9.88L14.25 9.88Q14.07 10.04 14.07 10.28L14.07 10.28L14.07 10.28Q14.07 10.51 14.25 10.67L14.25 10.67L14.25 10.67Q14.42 10.82 14.74 10.82L14.74 10.82L17.82 10.82L17.82 10.82Q18.68 10.82 19.19 11.35L19.19 11.35L19.19 11.35Q19.71 11.89 19.71 12.67L19.71 12.67L19.71 12.67Q19.71 13.24 19.43 13.74L19.43 13.74L19.43 13.74Q19.15 14.24 18.59 14.54L18.59 14.54L18.59 14.54Q18.03 14.84 17.25 14.84L17.25 14.84L14.13 14.84ZM15.90 8.68L15.90 8.68Q16.72 8.68 17.14 8.31L17.14 8.31L17.14 8.31Q17.56 7.94 17.56 7.25L17.56 7.25L17.56 7.25Q17.56 6.57 17.14 6.19L17.14 6.19L17.14 6.19Q16.73 5.82 15.90 5.82L15.90 5.82L15.90 5.82Q15.09 5.82 14.68 6.19L14.68 6.19L14.68 6.19Q14.27 6.57 14.27 7.25L14.27 7.25L14.27 7.25Q14.27 7.94 14.68 8.31L14.68 8.31L14.68 8.31Q15.09 8.68 15.90 8.68L15.90 8.68ZM14.46 13.75L17.26 13.75L17.26 13.75Q17.70 13.75 17.98 13.51L17.98 13.51L17.98 13.51Q18.27 13.27 18.27 12.89L18.27 12.89L18.27 12.89Q18.27 12.52 18.03 12.29L18.03 12.29L18.03 12.29Q17.79 12.07 17.42 12.07L17.42 12.07L14.46 12.07L14.46 12.07Q14.08 12.07 13.85 12.29L13.85 12.29L13.85 12.29Q13.62 12.52 13.62 12.89L13.62 12.89L13.62 12.89Q13.62 13.29 13.85 13.52L13.85 13.52L13.85 13.52Q14.08 13.75 14.46 13.75L14.46 13.75ZM23.93 12.46L23.93 12.46Q22.18 12.46 21.30 11.52L21.30 11.52L21.30 11.52Q20.43 10.57 20.43 8.61L20.43 8.61L20.43 8.61Q20.43 6.65 21.30 5.71L21.30 5.71L21.30 5.71Q22.18 4.76 23.93 4.76L23.93 4.76L23.93 4.76Q25.68 4.76 26.56 5.71L26.56 5.71L26.56 5.71Q27.44 6.65 27.44 8.61L27.44 8.61L27.44 8.61Q27.44 10.57 26.56 11.52L26.56 11.52L26.56 11.52Q25.68 12.46 23.93 12.46L23.93 12.46ZM23.93 11.27L23.93 11.27Q24.99 11.27 25.47 10.65L25.47 10.65L25.47 10.65Q25.96 10.02 25.96 8.68L25.96 8.68L25.96 8.54L25.96 8.54Q25.96 7.20 25.47 6.57L25.47 6.57L25.47 6.57Q24.99 5.95 23.93 5.95L23.93 5.95L23.93 5.95Q22.88 5.95 22.39 6.57L22.39 6.57L22.39 6.57Q21.91 7.20 21.91 8.54L21.91 8.54L21.91 8.68L21.91 8.68Q21.91 10.02 22.39 10.65L22.39 10.65L22.39 10.65Q22.88 11.27 23.93 11.27L23.93 11.27ZM28.01 12.29L31.75 2.69L33.71 2.69L37.44 12.29L35.78 12.29L34.90 9.95L30.48 9.95L29.61 12.29L28.01 12.29ZM30.97 8.62L34.40 8.62L33.35 5.81L32.72 4.02L32.65 4.02L32.03 5.78L30.97 8.62ZM38.47 14.71L38.47 4.93L39.62 4.93L39.76 5.91L39.86 5.91L39.86 5.91Q40.21 5.35 40.80 5.05L40.80 5.05L40.80 5.05Q41.40 4.76 42.13 4.76L42.13 4.76L42.13 4.76Q43.53 4.76 44.28 5.71L44.28 5.71L44.28 5.71Q45.04 6.65 45.04 8.61L45.04 8.61L45.04 8.61Q45.04 10.54 44.28 11.50L44.28 11.50L44.28 11.50Q43.53 12.46 42.22 12.46L42.22 12.46L42.22 12.46Q40.70 12.46 40.00 11.45L40.00 11.45L39.91 11.45L39.91 14.71L38.47 14.71ZM41.72 11.24L41.72 11.24Q42.71 11.24 43.13 10.65L43.13 10.65L43.13 10.65Q43.55 10.07 43.55 8.69L43.55 8.69L43.55 8.57L43.55 8.57Q43.55 7.17 43.13 6.57L43.13 6.57L43.13 6.57Q42.71 5.98 41.72 5.98L41.72 5.98L41.72 5.98Q40.78 5.98 40.35 6.64L40.35 6.64L40.35 6.64Q39.91 7.29 39.91 8.57L39.91 8.57L39.91 8.68L39.91 8.68Q39.91 9.94 40.35 10.59L40.35 10.59L40.35 10.59Q40.78 11.24 41.72 11.24L41.72 11.24ZM46.49 14.71L46.49 4.93L47.64 4.93L47.78 5.91L47.88 5.91L47.88 5.91Q48.23 5.35 48.83 5.05L48.83 5.05L48.83 5.05Q49.42 4.76 50.15 4.76L50.15 4.76L50.15 4.76Q51.55 4.76 52.30 5.71L52.30 5.71L52.30 5.71Q53.06 6.65 53.06 8.61L53.06 8.61L53.06 8.61Q53.06 10.54 52.30 11.50L52.30 11.50L52.30 11.50Q51.55 12.46 50.25 12.46L50.25 12.46L50.25 12.46Q48.72 12.46 48.02 11.45L48.02 11.45L47.94 11.45L47.94 14.71L46.49 14.71ZM49.74 11.24L49.74 11.24Q50.74 11.24 51.16 10.65L51.16 10.65L51.16 10.65Q51.58 10.07 51.58 8.69L51.58 8.69L51.58 8.57L51.58 8.57Q51.58 7.17 51.16 6.57L51.16 6.57L51.16 6.57Q50.74 5.98 49.74 5.98L49.74 5.98L49.74 5.98Q48.80 5.98 48.37 6.64L48.37 6.64L48.37 6.64Q47.94 7.29 47.94 8.57L47.94 8.57L47.94 8.68L47.94 8.68Q47.94 9.94 48.37 10.59L48.37 10.59L48.37 10.59Q48.80 11.24 49.74 11.24L49.74 11.24Z"></path></g><!----><g data-v-423bf9ae="" id="9794199a-2211-4061-ae68-95bee8181a60" transform="matrix(1.1085887485080295,0,0,1.1085887485080295,-1.1431904668303687,0.691073551720784)" stroke="none" fill="black"><path d="M60.258 27.237c-7.356 0-13.322 4.899-13.322 10.942 0 6.042 5.966 10.941 13.322 10.941 7.357 0 13.321-4.9 13.321-10.941 0-6.043-5.964-10.942-13.321-10.942zm8.36 12.126c-.055 1.604-.438 2.698-.846 3.549l-2.892-.729c.31-.609.897-1.75.897-3.501 0-1.581-.745-2.091-1.46-2.091-.817 0-1.382.851-2.175 2.942-1.075 2.893-2.481 4.035-4.81 4.035-2.276 0-4.222-1.507-4.708-4.302h-2.638V36.86h2.432c.075-1.628.563-3.208 1.1-4.132l2.996.729c-.59 1.021-1.128 2.455-1.128 4.037 0 1.41.59 2.357 1.587 2.357.971 0 1.588-.778 2.227-2.603.925-2.601 2.2-4.375 4.683-4.375 2.278 0 4.042 1.507 4.556 4.108h2.429v2.381h-2.25zM94.99 21.184a5.125 5.125 0 0 0-4.915-3.614 5.11 5.11 0 0 0-1.537.236l-6.971 2.18v10.789l10.046-3.139a5.117 5.117 0 0 0 3.027-2.526 5.117 5.117 0 0 0 .35-3.926zM86.058 36.216h-4.49v10.301h4.49a5.156 5.156 0 0 0 5.151-5.15 5.157 5.157 0 0 0-5.151-5.151zM81.567 50.457v8.079h4.49c2.841 0 5.151-2.311 5.151-5.15s-2.311-5.151-5.151-5.151h-4.49v2.222zM85.934 60.253h-4.366v10.3h4.366a5.156 5.156 0 0 0 5.151-5.149 5.156 5.156 0 0 0-5.151-5.151zM74.096.049H36.051v.004h-.701v32.97l2.389-1.096V2.439h36.357z"></path><path d="M48.379 26.894H46.07v-16.16h10.968v2.309h-8.659v13.851zM74.351 26.894h-2.309V13.043h-8.656v-2.309h10.965v16.16zM74.351 75.095H63.386v-2.309h8.656v-9.423h2.309v11.732z"></path><path d="M66.271 19.807h-13.85v-2.308h13.85v2.308zM66.271 69.873H51.266v-2.309h15.005v2.309z"></path><g><path d="M79.482 6.595V5.244H41.438v.004h-.701v44.273h2.39V7.633h33.971v70.319H49.485C48.282 85.31 41.23 90.274 40.99 90.43a1.468 1.468 0 0 1-2.034-.436 1.47 1.47 0 0 1 .438-2.035c.053-.034 5.594-3.718 7.222-9.926.264-1.004.461-1.987.617-2.938h9.806v-2.309h-9.507c.396-4.167-.05-7.219-.055-7.261a1.487 1.487 0 0 1-.002-.365H64.23c3.434 0 6.867-2.067 6.867-6.131s-3.023-6.623-6.867-6.623H37.544v-7.253h-.034l-.008-9.912c-3.59 1.56-6.094 2.665-6.631 2.939-4.332 2.207-7.603 7.276-8.339 9.32-.899 2.042-21.093 52.322-21.093 52.322h41.858s10.14-4.251 15.534-10.138c1.81-1.976 4.263-6.014 5.649-9.352l15.001.018.004-73.756h-.003z"></path></g></g><!----></svg>